<svg xmlns="http://www.w3.org/2000/svg" width="256" height="256"><path fill-opacity=".016" d="M0 128.004v128.004l128.25-.254 128.25-.254.254-127.75L257.008 0H0v128.004m.485.496c0 70.4.119 99.053.265 63.672.146-35.38.146-92.98 0-128C.604 29.153.485 58.1.485 128.5" fill="#1976D2" fill-rule="evenodd"/><path fill-opacity=".219" d="M118.5 1.02c-.55.506-2.758 2.392-4.907 4.192-7.634 6.392-9.777 17.136-5.214 26.149l2.379 4.699-4.324 1.97c-2.378 1.084-5.01 1.97-5.849 1.97-.839 0-2.523 1.35-3.743 3l-2.218 3H77.297c-13.206 0-18.81.405-23.562 1.702-3.429.936-6.46 1.948-6.735 2.25-.275.301-2.07 1.424-3.988 2.495C35.998 56.362 31.34 62.309 26.127 74c-1.551 3.479-3.109 18.61-3.119 30.285-.008 9.363-.091 9.741-1.942 8.75-2.711-1.451-10.221-1.233-12.316.357C7.145 114.61 7 117.466 7 147.746v33.026l3.628 1.721c2.502 1.188 4.828 1.53 7.5 1.103l3.872-.62v11.94c0 14.188 1.422 25.463 4.12 32.674 3.717 9.937 13.648 19.63 23.88 23.31 12.718 4.574 10.421 4.425 74.5 4.816 53.11.325 61.97.166 68.5-1.229 14.41-3.076 22.582-7.076 28.867-14.127 9.367-10.509 12.132-20.236 12.134-42.675l.001-14.185 6.107-.037c4.822-.029 6.399-.437 7.499-1.941 1.121-1.534 1.392-8.16 1.392-34.058 0-29.88-.129-32.271-1.829-33.809-2.242-2.029-12.079-2.352-12.336-.405-.091.688-.49-3.025-.887-8.25-1.582-20.82-2.286-27.091-3.099-27.593-.467-.289-.849-1.383-.849-2.432 0-2.44-2.976-8.895-5.275-11.44-.976-1.081-1.554-2.538-1.286-3.238.269-.7.111-1.166-.351-1.035-.463.131-2.15-.917-3.75-2.329-1.601-1.412-4.469-3.437-6.374-4.5-1.905-1.063-3.689-2.191-3.964-2.506-.275-.314-3.23-1.327-6.566-2.25C197.827 46.403 192.173 46 178.922 46c-17.135 0-17.465-.04-18.435-2.25-.623-1.421-2.682-2.803-5.586-3.75-2.529-.825-5.584-2.175-6.79-3l-2.191-1.5 2.04-4.202c4.476-9.22 1.21-22.273-6.842-27.337-2.152-1.354-3.707-2.798-3.456-3.211.661-1.087-17.972-.824-19.162.27m1.921 5.815C115.982 8.918 112 13.254 112 16.004c0 2.245 4.521 3.008 17 2.867 12.345-.14 15.603-.854 15.167-3.326-1.435-8.129-14.653-12.978-23.746-8.71M68.5 57.044c-14.649.613-18.714 2.018-24.326 8.411-7.278 8.288-9.165 15.449-9.105 34.545.026 7.975.363 16.3.75 18.5.629 3.572 1.04 4.033 3.84 4.306 2.206.215 3.337.957 3.811 2.5.535 1.742.963 1.01 2.077-3.546 4.152-16.994 15.675-27.098 30.893-27.089 8.291.005 14.275 2.27 20.244 7.662 4.401 3.976 8.787 12.105 9.802 18.167 1.071 6.394 1.581 7.345 2.568 4.787.841-2.18 1.112-2.209 18.15-1.957 9.513.141 18.083.623 19.046 1.07.963.448 1.791 1.778 1.84 2.957.05 1.179.666-1.007 1.37-4.857 3.276-17.933 13.956-27.825 30.04-27.825 8.462 0 14.398 2.347 20.751 8.203 5.401 4.978 8.38 10.611 10.102 19.103 1.087 5.356 1.428 6.027 1.97 3.868.705-2.809 5.135-4.505 6.437-2.465 1.241 1.945 2.089-7.36 2.176-23.884.108-20.446-1.506-26.063-9.936-34.594-7.37-7.458-9.733-7.958-38.798-8.207-21.38-.183-23.203-.063-23.202 1.526 0 3.694-16.132 8.45-24.5 7.222-9.225-1.353-17.499-4.778-17.502-7.244-.002-1.515-1.41-1.703-12.75-1.703-7.011 0-18.598.245-25.748.544m-1.043 53.819c-9.32 5.683-10.542 19.213-2.401 26.569C76.006 147.324 93 140.1 93 125.552c0-6.018-3.32-12.051-8.16-14.829-4.128-2.369-13.391-2.294-17.383.14m101.128 2.5c-3.179 3.178-4.552 5.479-5.058 8.478-2.019 11.947 6.276 21.078 18.045 19.864 9.512-.982 14.726-6.781 14.641-16.284-.094-10.469-6.243-16.411-16.989-16.417-6.078-.004-6.415.134-10.639 4.359m-82.57 85.848c-.019 2.157 3.803 5.789 6.092 5.789.951 0 2.441.273 3.311.607 1.229.472 1.582-.072 1.582-2.441 0-3.125-1.393-4.957-2.458-3.233-.822 1.329-6.671.469-7.685-1.13-.622-.98-.83-.879-.842.408m47.714.393c-.401.401-.729 2.004-.729 3.563V206h17v-2.941c0-1.618-.45-3.219-1-3.559-.55-.34-1-.141-1 .441 0 1.411-12.717 1.408-13.187-.003-.195-.585-.683-.735-1.084-.334m33.033 1.305c-2.244 1.302-3.097 1.363-4.736.339-2.813-1.756-3.026-1.628-3.026 1.819 0 2.436.361 2.97 1.75 2.593.963-.261 2.975-.746 4.471-1.079 1.497-.332 3.221-1.538 3.831-2.678 1.456-2.72 1.016-2.911-2.29-.994m-60.347.008c-.228.229-.415 1.466-.415 2.75 0 2.271.238 2.333 9 2.333 7.911 0 8.998-.212 8.985-1.75-.009-.963-.346-2.2-.75-2.75-.694-.944-15.934-1.473-16.82-.583" fill="#1976D2" fill-rule="evenodd"/><path fill-opacity=".454" d="M121.466 3.055c-.359.581-1.398.909-2.309.729-.911-.18-2.894 1.02-4.407 2.667-1.513 1.647-2.766 2.557-2.785 2.022-.02-.535-.679.152-1.465 1.527s-1.393 3.4-1.349 4.5c.074 1.833.121 1.844.561.134C111.173 8.948 120.418 3.231 129 2.706l5.5-.336-6.191-.185c-3.47-.104-6.478.279-6.843.87M137 4c-1.207.78-1.049.972.809.985 1.288.008 2.036-.427 1.691-.985-.743-1.202-.639-1.202-2.5 0m3.693 1.64c-.343.343.889 2.39 2.737 4.549 4.107 4.798 4.96 9.11 2.729 13.789-1.311 2.748-2.602 3.755-6.159 4.8-5.827 1.713-18.266 1.724-24 .021-3.786-1.125-4.864-2.048-6.797-5.818l-2.296-4.481.606 5.5c.334 3.025 1.255 6.497 2.047 7.715 2.835 4.36 1.244 6.04-8.722 9.215-2.013.642-3.916 1.83-4.227 2.641-.754 1.964 5.385 8.656 11.921 12.994 12.562 8.338 26.778 8.132 39.789-.577 7.536-5.045 12.199-10.19 11.318-12.487-.288-.749-2.937-2.123-5.887-3.053-2.95-.93-6.224-2.32-7.275-3.088-1.88-1.375-1.879-1.458.056-5.051 2.66-4.94 2.792-17.188.215-20.035-.964-1.065-1.451-2.237-1.084-2.605.368-.368-.107-.669-1.056-.669-.949 0-1.479-.399-1.178-.887.664-1.075-1.857-3.353-2.737-2.473M68.289 96.524c-4.682 1.475-11.789 6.101-14.663 9.544C50.04 110.363 47 118.821 47 124.5c0 6.819 3.676 15.524 8.8 20.836 13.67 14.175 35.579 11.379 45.729-5.836 7.079-12.007 4.273-28.744-6.278-37.447-7.63-6.293-17.869-8.393-26.962-5.529m101.492.353c-9.827 3.97-16.359 11.813-18.759 22.524-3.237 14.444 8.091 31.313 23.204 34.554 12.438 2.668 25.442-4.103 31.774-16.543 3.501-6.879 3.578-18.834.165-25.412-7.006-13.499-23.469-20.342-36.384-15.123M66 101.079c-8.446 3.818-14.558 11.669-15.186 19.506-.301 3.753-.19 3.915 2.686 3.915 2.556 0 3.074-.444 3.5-3 1.215-7.293 5.911-12.313 14.041-15.014 4.514-1.499 5.384-1.504 10.342-.063 6.634 1.928 12.109 7.063 13.771 12.912 1.537 5.412 2.177 6.05 5.286 5.269 2.957-.742 2.849-2.426-.694-10.861-5.15-12.261-21.264-18.308-33.746-12.664m102.266.526c-6.379 3.087-10.778 8.199-12.938 15.037-1.877 5.938-1.29 8.643 1.775 8.178 1.502-.228 2.54-1.617 3.597-4.82 3.378-10.232 13.871-16.307 23.793-13.774 6.787 1.732 12.947 7.65 14.67 14.094 1.135 4.245 1.555 4.738 3.807 4.475 2.307-.269 2.513-.676 2.334-4.616-.724-15.93-21.239-26.218-37.038-18.574m-98.236 6.924C63.017 111.681 59 117.888 59 125.574c0 16.27 19.871 23.449 30.716 11.096 11.712-13.339-3.676-35.337-19.686-28.141m103.768-.167C167.444 111.182 162 119.089 162 125.5c0 4.804 3.197 10.786 7.533 14.093 7.147 5.451 18.492 3.997 23.875-3.062 2.568-3.366 4.895-10.414 4.185-12.674-.234-.746-.688-2.56-1.009-4.03-1.931-8.847-14.47-15.156-22.786-11.465M10.25 113.648L7 115.25v32.008c0 31.521.033 32.036 2.153 33.875 2.332 2.022 10.259 2.628 11.347.867 1.768-2.861 2.31.414 2.416 14.621.112 15.056 1.805 28.002 4.296 32.859 4.749 9.261 13.447 16.967 23.674 20.975 11.712 4.59 18.771 5.045 78.114 5.039 48.423-.006 56.648-.227 64.5-1.734 11.558-2.218 21.631-7.136 27.662-13.506 9.066-9.575 11.527-17.956 12.495-42.545.458-11.635.981-16.471 1.702-15.75 1.521 1.521 8.943 1.271 11.2-.377 1.834-1.34 1.958-3.065 2.245-31.25.167-16.408.047-31.226-.267-32.929-.627-3.407-3.742-5.403-8.429-5.403-4.183 0-6.112 2.926-7.327 11.11-.834 5.621-1.271 6.799-1.894 5.114-.669-1.81-1.336-2.084-3.848-1.582-2.193.439-3.057.225-3.102-.767-.035-.756-.473-.357-.973.888s-1.45 10.422-2.111 20.394c-.661 9.973-1.523 17.264-1.916 16.203-1-2.704-2.713-3.899-8.265-5.766-2.655-.893-6.086-2.274-7.623-3.069-1.537-.795-3.067-1.174-3.398-.843-.331.332-1.323.005-2.203-.725-.95-.789-1.874-.946-2.274-.388-.371.517-3.243 1.792-6.383 2.834-4.431 1.47-7.304 1.76-12.836 1.296-3.92-.328-7.751-1.115-8.513-1.747-1.066-.885-1.756-.781-2.986.449-.879.879-2.354 1.669-3.277 1.755-.924.086-2.804.241-4.179.344-1.375.103-4.29.368-6.479.589l-3.978.4-7.522-14.603c-7.586-14.73-9.55-17.886-11.131-17.886-1.263 0-4.757 5.877-11.893 20-6.906 13.669-7.097 13.98-7.65 12.453-.208-.576-1.957-.863-3.887-.638-1.929.225-6.006.097-9.06-.284-4.209-.526-5.42-1.037-5.007-2.112.641-1.671-.539-1.873-2.06-.352-.587.587-4.441 1.322-8.565 1.634-7.273.55-14.593-1.019-18.474-3.959-.664-.503-1.789-.552-2.5-.109-.712.443-2.249.682-3.416.531-1.195-.154-2.383.405-2.719 1.281-.328.855-1.248 1.555-2.045 1.555-2.476 0-10.88 3.983-12.208 5.785-1.915 2.599-2.255.795-3.329-17.64-.524-8.995-1.221-16.623-1.55-16.951-.328-.328-2.381-.688-4.562-.801-3.65-.187-3.974.008-4.083 2.452-.117 2.629-.126 2.625-.882-.345-.42-1.65-.817-4.852-.882-7.115-.233-8.119-5.577-11.332-12.868-7.737m5.25 13.342c-2.689 1.499-3 2.174-3 6.505 0 4.376.296 4.999 3.131 6.582l3.131 1.75.468-4.873c.258-2.679.199-6.394-.131-8.255l-.599-3.382-3 1.673m221.5 5.951c0 3.818.47 7.231 1.044 7.586.574.355 2.149-.079 3.5-.964 2.045-1.34 2.456-2.414 2.456-6.426 0-4.19-.331-4.967-2.547-5.976-1.401-.639-2.976-1.161-3.5-1.161s-.953 3.123-.953 6.941m-110.335 1.113c-.84 1.954-1.671 4.879-1.846 6.5-.289 2.672-.017 2.975 2.938 3.26 4.381.422 4.99-1.582 2.46-8.099l-2.023-5.215-1.529 3.554m-41.25 59.863c-.228.229-.415 1.876-.415 3.661 0 4.281 4.708 8.422 9.577 8.422 3.371 0 3.422-.064 3.353-4.25-.118-7.116-.839-7.974-6.82-8.121-2.904-.071-5.466.059-5.695.288m28.835-.127l-8.25.291V206h18v-5.941c0-3.268-.338-6.08-.75-6.25-.412-.17-4.463-.178-9-.019m18.651 1.394c-1.224 2.288-1.146 10.804.099 10.866.55.027 4.488.073 8.75.1l7.75.05v-12.385l-7.849-.158c-6.441-.129-8.011.145-8.75 1.527m35.733-1.485c-.384.385-2.649.579-5.033.433l-4.334-.267-.522 5.318c-.618 6.293-.398 6.817 2.864 6.817 6.308 0 11.85-6.405 9.44-10.909-1.236-2.31-1.402-2.405-2.415-1.392" fill="#1976D2" fill-rule="evenodd"/><path fill-opacity=".607" d="M97.333 43.574c-1.634 4.258 16.029 16.254 26.372 17.912 5.294.849 14.333-.981 20.678-4.187C149.907 54.508 159 46.441 159 44.332c0-2.71-2.789-2.411-6.124.655-9.107 8.375-24.172 12.144-34.49 8.629-5.795-1.975-16.365-8.665-16.377-10.366-.013-1.811-3.961-1.537-4.676.324M9.635 115.073L7 117.145v29.963C7 182.1 6.977 182 15 182c4.03 0 5.034-.402 6.469-2.593 1.537-2.346 1.624-4.85.912-26.25-.638-19.187-.946-22.523-1.628-17.657-1.878 13.4-1.564 12.58-4.55 11.887-1.487-.345-3.223-1.275-3.858-2.068-1.534-1.915-2.713-14.179-1.853-19.274 1.07-6.332 7.056-9.422 9.288-4.795.977 2.026 1.091 1.847 1.152-1.8.038-2.228-.472-4.59-1.132-5.25-1.874-1.874-7.262-1.411-10.165.873m226.33-.007c-.677 1.264-1.427 13.592-1.933 31.75-.973 34.948-.925 35.184 7.061 35.184 7.598 0 7.407.884 7.407-34.242v-30.935l-2.361-1.911c-3.232-2.617-8.736-2.534-10.174.154m.778 4.524c-.409.409-.743 6.207-.743 12.886 0 13.935.843 16.294 5.229 14.627 1.975-.751 2.969-2.124 3.817-5.273 1.328-4.934.927-19.257-.583-20.767-1.372-1.372-6.787-2.405-7.72-1.473m-187.925 9.98c.221 1.887.724 3.43 1.118 3.43.873 0 .107-5.855-.842-6.442-.372-.23-.496 1.126-.276 3.012m54.09-3.32c-.05.138-.307 1.825-.57 3.75-.879 6.43-9.252 17.935-13.088 17.984-.687.009-1.25.364-1.25.789 0 .906-9.442 3.234-13.029 3.212C67.937 151.942 54 143.308 54 138.992a1 1 0 00-1-.992c-.55 0-1.036-.787-1.079-1.75-.047-1.05-.281-1.249-.584-.497C50.053 138.935 62.521 151 67.091 151c.985 0 2.069.45 2.409 1 1.022 1.654 10.678 1.128 16.175-.881 7.048-2.576 11.519-6.222 14.621-11.922 2.491-4.577 4.668-13.197 3.332-13.197-.345 0-.669.112-.72.25M152 127.953c0 2.747 3.931 12.244 6.246 15.088 2.408 2.958 8.289 6.816 12.754 8.367 5.004 1.738 13.094 2.084 15.764.675.955-.504 3.201-1.46 4.993-2.124 3.783-1.402 8.026-5.092 11.171-9.713 2.439-3.585 4.535-9.65 3.008-8.706-.515.318-.936 1.258-.936 2.089 0 2.632-5.897 10.205-10.278 13.2-6.413 4.383-13.469 5.869-19.972 4.207-6.472-1.654-8.23-2.599-13.074-7.035-4.354-3.987-7.676-10.455-7.676-14.946 0-1.68-.45-3.055-1-3.055s-1 .879-1 1.953m47.079-.37c.048 1.165.285 1.402.604.605.289-.722.253-1.585-.079-1.917-.332-.332-.568.258-.525 1.312m7.546-.785c-.271.439-.08 1.451.426 2.25.717 1.134.922.959.934-.798.015-2.313-.493-2.856-1.36-1.452M130 130.432c0 .421.638 2.184 1.418 3.917 4.322 9.603 9.582 24.231 9.582 26.649 0 3.607-1.23 4.005-12.332 3.988-11.714-.017-13.668-.537-13.668-3.637 0-2.24 7.76-23.512 10.104-27.696.569-1.016.799-2.084.511-2.372-.663-.662-16.615 32.126-16.615 34.151 0 2.839 3.831 3.568 18.684 3.554 16.753-.015 19.316-.423 19.316-3.078 0-2.077-3.705-10.48-11.201-25.408-5.16-10.276-5.799-11.385-5.799-10.068M222.673 175c-.387 3.025-1.124 13.375-1.636 23-1.096 20.551-2.642 26.605-8.22 32.183-4.572 4.572-9.789 7.311-18.036 9.47-5.327 1.394-14.278 1.71-58.942 2.078-32.951.273-56.581.041-63.135-.619-16.43-1.653-27.629-6.707-32.205-14.534-3.565-6.096-4.446-11.216-5.502-31.984-.529-10.398-1.217-19.713-1.53-20.699-.539-1.696-.674-1.688-2.518.156-1.072 1.072-2.772 1.949-3.777 1.949-4.04 0-5.368 18.124-2.769 37.789 2.291 17.326 9.244 27.851 22.688 34.343 11.829 5.711 25.246 6.853 80.409 6.844 41.506-.008 61.268-.867 71-3.089 13.55-3.092 26.266-13.277 30.404-24.352 5.266-14.092 5.268-55.232.003-51.978-1.509.933-4.752-1.464-5.148-3.805-.21-1.239-.698.223-1.086 3.248M87.9 185.991c-9.52 5.032-9.287 16.55.438 21.734 2.772 1.478 7.357 1.702 37.162 1.814 18.7.071 35.685-.07 37.744-.314 5.182-.613 11.673-6.513 12.349-11.225.618-4.303-2.137-9.142-6.834-12.005-3.1-1.891-5.06-1.986-40.259-1.947-34.398.038-37.253.174-40.6 1.943m4.116 2.033c-4.29 1.009-8.016 5.144-8.016 8.897 0 5.298 6.618 10.695 12.155 9.911 2.213-.313 2.332-.699 2.122-6.832-.267-7.798-1.109-13.038-2.072-12.898-.388.057-2.273.471-4.189.922m14.411.095c-.381.615-.92 5.132-1.2 10.038l-.509 8.919 9.891-.288 9.891-.288.336-3.5c.185-1.925.036-6.312-.33-9.75l-.665-6.25h-8.362c-5.086 0-8.632.438-9.052 1.119M132.232 190c-.374 1.375-.692 5.65-.706 9.5l-.026 7 9.75.286 9.75.286v-5.396c0-2.968-.271-7.372-.602-9.786l-.601-4.39h-8.442c-8.157 0-8.465.085-9.123 2.5m26.419.697c-.346 2.091-.634 6.675-.64 10.185l-.011 6.381 4.112-.551c9.241-1.24 13.243-10.712 6.811-16.123-1.692-1.424-3.905-2.589-4.918-2.589-1.013 0-2.49-.249-3.284-.553-1.046-.402-1.615.491-2.07 3.25" fill="#1976D2" fill-rule="evenodd"/></svg>